<svg width="31" height="32" fill="none" xmlns="http://www.w3.org/2000/svg"><path d="M30.285 13.017 16.543.61A2.378 2.378 0 0 0 14.901 0a2.375 2.375 0 0 0-1.614.676L.649 13.08 0 13.716V32h12.179V20.591h6.642V32H31V13.662l-.715-.646ZM14.949 2.173c.02 0 .008.004 0 .012-.01-.008-.02-.012 0-.012Zm13.837 27.654h-7.75v-9.236c0-.576-.234-1.129-.649-1.536a2.236 2.236 0 0 0-1.566-.636H12.18c-.588 0-1.15.229-1.566.636-.415.407-.649.96-.649 1.537v9.235h-7.75V14.616L14.95 2.213l.002-.003 13.835 12.406v15.211Z" fill="#606161"/></svg>