<svg width="18" height="18" viewBox="0 0 18 18" fill="none" xmlns="http://www.w3.org/2000/svg">
<path fill-rule="evenodd" clip-rule="evenodd" d="M9.00035 9.55653C8.72981 9.56173 8.46095 9.51293 8.20949 9.41298C7.95803 9.31304 7.72902 9.16397 7.53585 8.97447C7.34269 8.78498 7.18924 8.55887 7.08449 8.30938C6.97974 8.05988 6.92579 7.79201 6.92579 7.52141C6.92579 7.25082 6.97974 6.98294 7.08449 6.73345C7.18924 6.48395 7.34269 6.25785 7.53585 6.06835C7.72902 5.87886 7.95803 5.72978 8.20949 5.62984C8.46095 5.5299 8.72981 5.4811 9.00035 5.48629C9.53334 5.49652 10.041 5.71544 10.4143 6.09598C10.7877 6.47653 10.9968 6.98833 10.9968 7.52141C10.9968 8.05449 10.7877 8.5663 10.4143 8.94685C10.041 9.32739 9.53334 9.5463 9.00035 9.55653ZM7.40736 0.777804C4.20487 1.49255 1.95937 4.50679 2.08537 7.78579C2.18437 10.3613 3.76462 12.6653 8.46635 17.1855C8.76335 17.4705 9.23885 17.472 9.5366 17.1863C14.3996 12.5115 15.9236 10.2075 15.9236 7.52104C15.9236 3.17855 11.9238 -0.230194 7.40736 0.778554" fill="#8B95A1"/>
</svg>
