<svg width="43" height="43" viewBox="0 0 43 43" fill="none" xmlns="http://www.w3.org/2000/svg">
<mask id="mask0_1371_22148" style="mask-type:alpha" maskUnits="userSpaceOnUse" x="0" y="0" width="43" height="43">
<rect width="43" height="43" rx="21.5" fill="#5E5E5E" fill-opacity="0.2"/>
</mask>
<g mask="url(#mask0_1371_22148)">
<circle cx="21.4993" cy="21.5" r="27.1087" fill="#5E5E5E" fill-opacity="0.2"/>
</g>
<path d="M31.7311 17.9707L27.663 14.7384V18.0669C26.2356 17.9507 24.7985 18.1205 23.4441 18.5655C22.8437 18.7606 22.2595 18.9984 21.6965 19.2771V14.2213H25.4933L22.1033 10.3425L18.7132 6.46371L15.3232 10.3425L11.9331 14.2213H15.6215V34.8046H21.6965C21.6965 34.8046 21.6911 30.178 21.69 29.4664C21.69 28.3286 21.6119 27.104 22.2009 26.0707C22.4906 25.5208 22.897 25.0344 23.3942 24.6422C24.6145 23.7341 26.1099 23.2262 27.6576 23.1942V27.6677L31.7256 24.4354L35.7991 21.2031L31.7311 17.9707Z" fill="#D6D6D6"/>
</svg>
