<svg width="20" height="20" viewBox="0 0 20 20" fill="none" xmlns="http://www.w3.org/2000/svg">
<path fill-rule="evenodd" clip-rule="evenodd" d="M10.2791 4.54506L2.7274 12.0967L1.6974 15.9384L1.0199 18.4692C1.00109 18.5399 1.00118 18.6143 1.02018 18.685C1.03917 18.7557 1.07641 18.8201 1.12814 18.8718C1.17988 18.9236 1.2443 18.9608 1.31496 18.9798C1.38562 18.9988 1.46003 18.9989 1.53074 18.9801L4.0599 18.3017L7.9024 17.2717H7.90324L15.4549 9.72006L10.2799 4.54506H10.2791ZM18.5774 5.42006L14.5807 1.42256C14.5034 1.3451 14.4116 1.28365 14.3105 1.24173C14.2094 1.1998 14.101 1.17822 13.9916 1.17822C13.8821 1.17822 13.7738 1.1998 13.6727 1.24173C13.5716 1.28365 13.4797 1.3451 13.4024 1.42256L11.3399 3.48422L16.5157 8.66006L18.5774 6.59756C18.6549 6.52023 18.7163 6.4284 18.7582 6.3273C18.8002 6.22621 18.8217 6.11784 18.8217 6.00839C18.8217 5.89895 18.8002 5.79058 18.7582 5.68948C18.7163 5.58838 18.6549 5.49655 18.5774 5.41922" fill="#8B95A1"/>
</svg>
