<svg width="20" height="20" viewBox="0 0 20 20" fill="none" xmlns="http://www.w3.org/2000/svg">
<g clip-path="url(#clip0_2396_8568)">
<path d="M10.0003 19.1666C15.0837 19.1666 19.167 15.0833 19.167 9.99996C19.167 4.91663 15.0837 0.833292 10.0003 0.833291C4.91699 0.833291 0.833659 4.91662 0.833659 9.99996C0.833659 15.0833 4.91699 19.1666 10.0003 19.1666ZM6.25033 9.16662L11.7503 9.16663L9.83366 7.24996C9.50033 6.91662 9.50033 6.41662 9.83366 6.08329C10.0003 5.91662 10.2503 5.83329 10.417 5.83329C10.5837 5.83329 10.8337 5.91662 11.0003 6.08329L14.3337 9.41663C14.667 9.74996 14.667 10.25 14.3337 10.5833L11.0003 13.9166C10.667 14.25 10.167 14.25 9.83366 13.9166C9.50033 13.5833 9.50033 13.0833 9.83366 12.75L11.7503 10.8333L6.25033 10.8333C5.75033 10.8333 5.41699 10.5 5.41699 9.99996C5.41699 9.49996 5.83366 9.16662 6.25033 9.16662Z" fill="#0000FF"/>
</g>
<defs>
<clipPath id="clip0_2396_8568">
<rect width="20" height="20" fill="white" transform="translate(20 20) rotate(-180)"/>
</clipPath>
</defs>
</svg>
