<svg width="40" height="40" viewBox="0 0 40 40" fill="none" xmlns="http://www.w3.org/2000/svg">
<circle cx="20" cy="20" r="20" fill="white"/>
<path fill-rule="evenodd" clip-rule="evenodd" d="M12.7748 14.6833H27.4415C27.7332 14.6833 28.013 14.5674 28.2193 14.3611C28.4256 14.1548 28.5415 13.8751 28.5415 13.5833C28.5415 13.2916 28.4256 13.0118 28.2193 12.8055C28.013 12.5992 27.7332 12.4833 27.4415 12.4833H12.7748C12.4831 12.4833 12.2033 12.5992 11.997 12.8055C11.7907 13.0118 11.6748 13.2916 11.6748 13.5833C11.6748 13.8751 11.7907 14.1548 11.997 14.3611C12.2033 14.5674 12.4831 14.6833 12.7748 14.6833M27.4415 18.9H12.7748C12.4831 18.9 12.2033 19.0159 11.997 19.2222C11.7907 19.4285 11.6748 19.7083 11.6748 20C11.6748 20.2917 11.7907 20.5715 11.997 20.7778C12.2033 20.9841 12.4831 21.1 12.7748 21.1H27.4415C27.7332 21.1 28.013 20.9841 28.2193 20.7778C28.4256 20.5715 28.5415 20.2917 28.5415 20C28.5415 19.7083 28.4256 19.4285 28.2193 19.2222C28.013 19.0159 27.7332 18.9 27.4415 18.9ZM27.4415 25.3167H12.7748C12.6304 25.3167 12.4873 25.3451 12.3539 25.4004C12.2204 25.4557 12.0991 25.5367 11.997 25.6388C11.8948 25.741 11.8138 25.8622 11.7585 25.9957C11.7033 26.1292 11.6748 26.2722 11.6748 26.4167C11.6748 26.5611 11.7033 26.7041 11.7585 26.8376C11.8138 26.9711 11.8948 27.0923 11.997 27.1945C12.0991 27.2966 12.2204 27.3776 12.3539 27.4329C12.4873 27.4882 12.6304 27.5167 12.7748 27.5167H27.4415C27.5859 27.5167 27.729 27.4882 27.8624 27.4329C27.9959 27.3776 28.1171 27.2966 28.2193 27.1945C28.3214 27.0923 28.4025 26.9711 28.4577 26.8376C28.513 26.7041 28.5415 26.5611 28.5415 26.4167C28.5415 26.2722 28.513 26.1292 28.4577 25.9957C28.4025 25.8622 28.3214 25.741 28.2193 25.6388C28.1171 25.5367 27.9959 25.4557 27.8624 25.4004C27.729 25.3451 27.5859 25.3167 27.4415 25.3167" fill="#565656"/>
</svg>
