<svg width="24" height="24" viewBox="0 0 24 24" fill="none" xmlns="http://www.w3.org/2000/svg">
<path fill-rule="evenodd" clip-rule="evenodd" d="M9.99998 5.22998C10 4.96727 10.0519 4.70715 10.1524 4.46446C10.253 4.22177 10.4005 4.00128 10.5863 3.81556C10.7721 3.62984 10.9926 3.48254 11.2354 3.38207C11.4781 3.28159 11.7383 3.22991 12.001 3.22998C12.2637 3.23005 12.5238 3.28186 12.7665 3.38245C13.0092 3.48305 13.2297 3.63046 13.4154 3.81627C13.6011 4.00208 13.7484 4.22265 13.8489 4.46538C13.9494 4.70812 14.001 4.96827 14.001 5.23098C14.0008 5.76155 13.79 6.27033 13.4147 6.6454C13.0394 7.02047 12.5305 7.23111 12 7.23098C11.4694 7.23085 10.9606 7.01995 10.5856 6.64469C10.2105 6.26943 9.99984 5.76055 9.99998 5.22998ZM9.99998 12.001C9.99998 11.4705 10.2107 10.9618 10.5858 10.5868C10.9608 10.2117 11.4695 10.001 12 10.001C12.5304 10.001 13.0391 10.2117 13.4142 10.5868C13.7893 10.9618 14 11.4705 14 12.001C14 12.5314 13.7893 13.0401 13.4142 13.4152C13.0391 13.7903 12.5304 14.001 12 14.001C11.4695 14.001 10.9608 13.7903 10.5858 13.4152C10.2107 13.0401 9.99998 12.5314 9.99998 12.001ZM9.99998 18.771C10 18.5083 10.0519 18.2481 10.1524 18.0055C10.253 17.7628 10.4005 17.5423 10.5863 17.3566C10.7721 17.1708 10.9926 17.0235 11.2354 16.9231C11.4781 16.8226 11.7383 16.7709 12.001 16.771C12.2637 16.771 12.5238 16.8229 12.7665 16.9235C13.0092 17.024 13.2297 17.1715 13.4154 17.3573C13.6011 17.5431 13.7484 17.7636 13.8489 18.0064C13.9494 18.2491 14.001 18.5093 14.001 18.772C14.0008 19.3025 13.7899 19.8113 13.4147 20.1864C13.0394 20.5615 12.5305 20.7721 12 20.772C11.4694 20.7718 10.9606 20.561 10.5856 20.1857C10.2105 19.8104 9.99984 19.3015 9.99998 18.771Z" fill="#8B95A1"/>
</svg>
