<svg width="73" height="73" viewBox="0 0 73 73" fill="none" xmlns="http://www.w3.org/2000/svg">
<circle cx="36.5" cy="36.5" r="36.5" fill="#0000FF"/>
<path fill-rule="evenodd" clip-rule="evenodd" d="M37.3717 28.239L25.344 40.2667L23.7035 46.3854L22.6244 50.4164C22.5944 50.529 22.5946 50.6475 22.6249 50.76C22.6551 50.8726 22.7144 50.9752 22.7968 51.0576C22.8792 51.14 22.9818 51.1993 23.0944 51.2296C23.2069 51.2598 23.3254 51.26 23.438 51.23L27.4663 50.1496L33.5864 48.5091H33.5877L45.6154 36.4813L37.3731 28.239H37.3717ZM50.5887 29.6326L44.2231 23.2657C44.1 23.1423 43.9537 23.0444 43.7927 22.9777C43.6317 22.9109 43.4591 22.8765 43.2847 22.8765C43.1104 22.8765 42.9378 22.9109 42.7768 22.9777C42.6158 23.0444 42.4695 23.1423 42.3464 23.2657L39.0614 26.5494L47.3051 34.793L50.5887 31.508C50.7121 31.3849 50.81 31.2386 50.8767 31.0776C50.9435 30.9166 50.9779 30.744 50.9779 30.5697C50.9779 30.3954 50.9435 30.2227 50.8767 30.0617C50.81 29.9007 50.7121 29.7544 50.5887 29.6313" fill="white"/>
</svg>
