<svg width="24" height="24" viewBox="0 0 24 24" fill="none" xmlns="http://www.w3.org/2000/svg">
<path fill-rule="evenodd" clip-rule="evenodd" d="M20.9673 12.362C20.6538 12.3074 20.3315 12.3796 20.0712 12.5626C19.8109 12.7456 19.634 13.0246 19.5793 13.338C19.2679 15.1268 18.3344 16.748 16.9435 17.915C15.5526 19.0821 13.7939 19.72 11.9783 19.716C7.72428 19.716 4.26328 16.255 4.26328 12C4.26328 7.74602 7.72428 4.28502 11.9783 4.28502C13.9123 4.28502 15.7313 4.99902 17.1533 6.28902L16.1613 7.28102C16.0315 7.4103 15.9401 7.57306 15.8973 7.75117C15.8546 7.92929 15.862 8.11579 15.9189 8.28991C15.9758 8.46404 16.0799 8.61896 16.2196 8.73744C16.3594 8.85592 16.5292 8.93332 16.7103 8.96102L20.9223 9.61102C21.0762 9.63474 21.2334 9.62183 21.3814 9.57335C21.5293 9.52487 21.6638 9.44218 21.7738 9.33199C21.8838 9.2218 21.9662 9.08723 22.0144 8.9392C22.0626 8.79117 22.0753 8.63385 22.0513 8.48002L21.4023 4.26902C21.3744 4.08806 21.2969 3.91837 21.1785 3.77876C21.06 3.63915 20.9052 3.5351 20.7312 3.47813C20.5572 3.42116 20.3708 3.41352 20.1927 3.45604C20.0146 3.49856 19.8518 3.58959 19.7223 3.71902L18.8503 4.59202C16.9866 2.84963 14.5296 1.8818 11.9783 1.88502C6.40128 1.88502 1.86328 6.42302 1.86328 12C1.86328 17.578 6.40128 22.115 11.9783 22.115C16.9063 22.115 21.0963 18.597 21.9433 13.75C21.9979 13.4365 21.9257 13.1142 21.7427 12.8539C21.5597 12.5936 21.2807 12.4167 20.9673 12.362Z" fill="#121212"/>
</svg>
