<svg width="22" height="22" viewBox="0 0 22 22" fill="none" xmlns="http://www.w3.org/2000/svg">
<path d="M20.8488 19.1508L16.2418 14.5438C17.3268 13.1058 17.9778 11.3238 17.9778 9.38783C17.9778 4.65183 14.1238 0.798828 9.3888 0.798828C4.6528 0.799828 0.799805 4.65283 0.799805 9.38883C0.799805 14.1238 4.6528 17.9778 9.3888 17.9778C11.3238 17.9778 13.1068 17.3268 14.5448 16.2418L19.1518 20.8488C19.3858 21.0828 19.6928 21.1998 19.9998 21.1998C20.3068 21.1998 20.6138 21.0828 20.8488 20.8478C21.3168 20.3798 21.3168 19.6198 20.8488 19.1508ZM3.1998 9.38883C3.1998 5.97583 5.9758 3.19983 9.3888 3.19983C12.8008 3.19983 15.5768 5.97583 15.5768 9.38783C15.5768 12.7998 12.8008 15.5758 9.3888 15.5758C5.9758 15.5768 3.1998 12.8008 3.1998 9.38883V9.38883Z" fill="white"/>
</svg>
