<svg width="26" height="26" viewBox="0 0 26 26" fill="none" xmlns="http://www.w3.org/2000/svg">
<rect width="26" height="26" rx="13" fill="#0000FF"/>
<path fill-rule="evenodd" clip-rule="evenodd" d="M12.0994 19.0994L12.0994 8.57237L8.01117 12.6606C7.65942 13.0124 7.08942 13.0124 6.73842 12.6606C6.38667 12.3089 6.38667 11.7396 6.73842 11.3879L12.3634 5.76287C12.3649 5.76062 12.3679 5.75987 12.3702 5.75762C12.4519 5.67737 12.5487 5.61287 12.6552 5.56862C12.8757 5.47712 13.1232 5.47712 13.3437 5.56862C13.4509 5.61287 13.5469 5.67737 13.6287 5.75762C13.6309 5.75987 13.6339 5.76062 13.6362 5.76287L19.2612 11.3879C19.4367 11.5634 19.5244 11.7936 19.5244 12.0239C19.5244 12.2549 19.4367 12.4851 19.2612 12.6606C18.9094 13.0124 18.3394 13.0124 17.9884 12.6606L13.8994 8.57237L13.8994 19.0994C13.8994 19.5966 13.4967 19.9994 12.9994 19.9994C12.5029 19.9994 12.0994 19.5966 12.0994 19.0994Z" fill="white"/>
</svg>
