<svg width="43" height="43" viewBox="0 0 43 43" fill="none" xmlns="http://www.w3.org/2000/svg">
<circle cx="21.5" cy="21.5" r="21.5" fill="#F9F9F9"/>
<path fill-rule="evenodd" clip-rule="evenodd" d="M28.4312 32.3697H14.5679C12.3977 32.3697 10.6304 30.6035 10.6304 28.4322V14.5688C10.6304 12.3976 12.3977 10.6313 14.5679 10.6313H17.9879C18.3161 10.6313 18.6308 10.7617 18.8629 10.9938C19.095 11.2259 19.2254 11.5406 19.2254 11.8688C19.2254 12.1971 19.095 12.5118 18.8629 12.7439C18.6308 12.976 18.3161 13.1063 17.9879 13.1063H14.5679C13.7612 13.1063 13.1054 13.7622 13.1054 14.5688V28.4322C13.1054 29.2377 13.7612 29.8947 14.5679 29.8947H28.4312C29.2379 29.8947 29.8937 29.2377 29.8937 28.4322V25.0088C29.8937 24.6806 30.0241 24.3659 30.2562 24.1338C30.4883 23.9017 30.803 23.7713 31.1312 23.7713C31.4595 23.7713 31.7742 23.9017 32.0063 24.1338C32.2384 24.3659 32.3687 24.6806 32.3687 25.0088V28.4322C32.3687 30.6035 30.6025 32.3697 28.4312 32.3697Z" fill="#8B95A1"/>
<path fill-rule="evenodd" clip-rule="evenodd" d="M21.715 22.5229C21.4701 22.523 21.2308 22.4504 21.0272 22.3145C20.8236 22.1785 20.665 21.9852 20.5713 21.759C20.4776 21.5328 20.4531 21.284 20.5009 21.0438C20.5486 20.8037 20.6666 20.5832 20.8397 20.4101L30.256 10.9939C30.3703 10.8765 30.5069 10.7831 30.6577 10.7189C30.8085 10.6547 30.9705 10.6212 31.1344 10.6201C31.2983 10.6191 31.4608 10.6506 31.6123 10.7129C31.7639 10.7752 31.9017 10.8669 32.0175 10.9829C32.1333 11.0988 32.225 11.2365 32.2872 11.3882C32.3493 11.5398 32.3808 11.7023 32.3796 11.8662C32.3785 12.03 32.3448 12.1921 32.2806 12.3428C32.2163 12.4936 32.1228 12.6301 32.0053 12.7444L22.5902 22.1606C22.4756 22.2757 22.3393 22.3669 22.1893 22.429C22.0393 22.4912 21.8785 22.5231 21.7161 22.5229" fill="#8B95A1"/>
<path fill-rule="evenodd" clip-rule="evenodd" d="M31.1313 21.4313C30.8031 21.4313 30.4884 21.301 30.2563 21.0689C30.0242 20.8368 29.8938 20.5221 29.8938 20.1938V13.1063H22.8063C22.4781 13.1063 22.1634 12.976 21.9313 12.7439C21.6992 12.5118 21.5688 12.1971 21.5688 11.8688C21.5688 11.5406 21.6992 11.2259 21.9313 10.9938C22.1634 10.7617 22.4781 10.6313 22.8063 10.6313H31.1313C31.4596 10.6313 31.7743 10.7617 32.0064 10.9938C32.2385 11.2259 32.3688 11.5406 32.3688 11.8688V20.1938C32.3688 20.5221 32.2385 20.8368 32.0064 21.0689C31.7743 21.301 31.4596 21.4313 31.1313 21.4313Z" fill="#8B95A1"/>
</svg>
