<svg width="43" height="43" viewBox="0 0 43 43" fill="none" xmlns="http://www.w3.org/2000/svg">
<circle cx="21.5" cy="21.5" r="21.5" fill="#F9F9F9"/>
<path d="M20.2611 26.877C20.2611 27.6611 19.6255 28.2968 18.8413 28.2968H15.458C13.5448 28.2968 11.9337 27.6473 10.6247 26.3484C9.31565 25.0494 8.66113 23.4333 8.66113 21.4999C8.66113 19.5867 9.31565 17.9706 10.6247 16.6515C11.9337 15.3324 13.5448 14.6729 15.458 14.6729H18.8262C19.6187 14.6729 20.2611 15.3153 20.2611 16.1077C20.2611 16.9002 19.6187 17.5426 18.8262 17.5426H15.458C14.3101 17.5426 13.3636 17.9152 12.6184 18.6604C11.8733 19.4055 11.5007 20.352 11.5007 21.4999C11.5007 22.6479 11.8733 23.5944 12.6184 24.3395C13.3636 25.0847 14.3101 25.4572 15.458 25.4572H18.8413C19.6255 25.4572 20.2611 26.0929 20.2611 26.877ZM17.3913 22.5874C16.7907 22.5874 16.3038 22.1005 16.3038 21.4999C16.3038 20.8993 16.7907 20.4124 17.3913 20.4124H25.608C26.2086 20.4124 26.6955 20.8993 26.6955 21.4999C26.6955 22.1005 26.2086 22.5874 25.608 22.5874H17.3913ZM24.158 28.2968C23.3739 28.2968 22.7382 27.6611 22.7382 26.877C22.7382 26.0929 23.3739 25.4572 24.158 25.4572H27.5413C28.6893 25.4572 29.6358 25.0847 30.3809 24.3395C31.1261 23.5944 31.4986 22.6479 31.4986 21.4999C31.4986 20.352 31.1261 19.4055 30.3809 18.6604C29.6358 17.9152 28.6893 17.5426 27.5413 17.5426H24.1731C23.3806 17.5426 22.7382 16.9002 22.7382 16.1077C22.7382 15.3153 23.3806 14.6729 24.1731 14.6729H27.5413C29.4545 14.6729 31.0707 15.3324 32.3898 16.6515C33.7089 17.9706 34.3684 19.5867 34.3684 21.4999C34.3684 23.4131 33.7089 25.0242 32.3898 26.3333C31.0707 27.6423 29.4545 28.2968 27.5413 28.2968H24.158Z" fill="#8B95A1"/>
</svg>
