<svg width="40" height="40" viewBox="0 0 40 40" fill="none" xmlns="http://www.w3.org/2000/svg">
<circle cx="20" cy="20" r="20" fill="#EDEDED"/>
<path fill-rule="evenodd" clip-rule="evenodd" d="M20.0002 26.267C18.6094 26.2654 17.276 25.7122 16.2925 24.7288C15.309 23.7453 14.7558 22.4119 14.7542 21.021C14.7555 19.63 15.3086 18.2963 16.2921 17.3127C17.2756 16.329 18.6092 15.7756 20.0002 15.774C21.3912 15.7756 22.7248 16.329 23.7083 17.3127C24.6918 18.2963 25.2449 19.63 25.2462 21.021C25.2446 22.4119 24.6914 23.7453 23.7079 24.7288C22.7245 25.7122 21.391 26.2654 20.0002 26.267ZM28.1132 13.136H25.1592L24.0462 10.967C23.8697 10.6237 23.602 10.3356 23.2724 10.1345C22.9429 9.93335 22.5643 9.82698 22.1782 9.82703H17.7652C17.3715 9.82698 16.9858 9.93759 16.652 10.1462C16.3181 10.3549 16.0497 10.6531 15.8772 11.007L14.8412 13.136H11.8872C11.5562 13.1359 11.2284 13.201 10.9225 13.3276C10.6167 13.4541 10.3388 13.6397 10.1047 13.8738C9.87055 14.1078 9.68483 14.3856 9.55813 14.6914C9.43143 14.9972 9.36621 15.325 9.36621 15.656V27.257C9.36621 27.588 9.43143 27.9158 9.55813 28.2216C9.68483 28.5274 9.87055 28.8053 10.1047 29.0393C10.3388 29.2733 10.6167 29.4589 10.9225 29.5855C11.2284 29.7121 11.5562 29.7772 11.8872 29.777H28.1132C28.4442 29.7772 28.772 29.7121 29.0779 29.5855C29.3837 29.4589 29.6617 29.2733 29.8958 29.0393C30.1299 28.8053 30.3156 28.5274 30.4423 28.2216C30.569 27.9158 30.6342 27.588 30.6342 27.257V15.656C30.6342 15.325 30.569 14.9972 30.4423 14.6914C30.3156 14.3856 30.1299 14.1078 29.8958 13.8738C29.6617 13.6397 29.3837 13.4541 29.0779 13.3276C28.772 13.201 28.4442 13.1359 28.1132 13.136Z" fill="#949494"/>
<path fill-rule="evenodd" clip-rule="evenodd" d="M20.0005 17.6641C19.1109 17.6651 18.258 18.0191 17.629 18.6482C17 19.2774 16.6463 20.1304 16.6455 21.0201C16.646 21.9098 16.9996 22.7629 17.6287 23.3922C18.2577 24.0214 19.1108 24.3753 20.0005 24.3761C20.8902 24.3753 21.7433 24.0214 22.3723 23.3922C23.0014 22.7629 23.355 21.9098 23.3555 21.0201C23.3547 20.1304 23.001 19.2774 22.372 18.6482C21.7431 18.0191 20.8902 17.6651 20.0005 17.6641Z" fill="#949494"/>
</svg>
