<svg width="30" height="30" viewBox="0 0 30 30" fill="none" xmlns="http://www.w3.org/2000/svg">
<path d="M7.1875 27.5V25.625H14.0625V20H11.25C9.52083 20 8.04688 19.3906 6.82813 18.1719C5.60938 16.9531 5 15.4792 5 13.75C5 12.5 5.34375 11.349 6.03125 10.2969C6.71875 9.24479 7.64583 8.47917 8.8125 8C9 6.4375 9.68229 5.13021 10.8594 4.07812C12.0365 3.02604 13.4167 2.5 15 2.5C16.5833 2.5 17.9635 3.02604 19.1406 4.07812C20.3177 5.13021 21 6.4375 21.1875 8C22.3542 8.47917 23.2812 9.24479 23.9688 10.2969C24.6562 11.349 25 12.5 25 13.75C25 15.4792 24.3906 16.9531 23.1719 18.1719C21.9531 19.3906 20.4792 20 18.75 20H15.9375V25.625H23.125V27.5H7.1875ZM11.25 18.125H18.75C19.9583 18.125 20.9896 17.6979 21.8438 16.8438C22.6979 15.9896 23.125 14.9583 23.125 13.75C23.125 12.875 22.875 12.0781 22.375 11.3594C21.875 10.6406 21.2292 10.1042 20.4375 9.75L19.4375 9.3125L19.3125 8.21875C19.1667 7.11458 18.6875 6.19792 17.875 5.46875C17.0625 4.73958 16.1042 4.375 15 4.375C13.8958 4.375 12.9375 4.73958 12.125 5.46875C11.3125 6.19792 10.8333 7.11458 10.6875 8.21875L10.5625 9.3125L9.5625 9.75C8.77083 10.1042 8.125 10.6406 7.625 11.3594C7.125 12.0781 6.875 12.875 6.875 13.75C6.875 14.9583 7.30208 15.9896 8.15625 16.8438C9.01042 17.6979 10.0417 18.125 11.25 18.125Z" fill="#636363"/>
</svg>
