<svg width="62" height="62" viewBox="0 0 62 62" fill="none" xmlns="http://www.w3.org/2000/svg">
<path fill-rule="evenodd" clip-rule="evenodd" d="M30.9997 44.2215C30.1775 44.2215 29.389 43.8949 28.8076 43.3136C28.2263 42.7322 27.8997 41.9437 27.8997 41.1215C27.8997 40.2994 28.2263 39.5109 28.8076 38.9295C29.389 38.3481 30.1775 38.0215 30.9997 38.0215C31.8218 38.0215 32.6103 38.3481 33.1917 38.9295C33.7731 39.5109 34.0997 40.2994 34.0997 41.1215C34.0997 41.9437 33.7731 42.7322 33.1917 43.3136C32.6103 43.8949 31.8218 44.2215 30.9997 44.2215ZM28.4163 18.8145C28.4163 18.1293 28.6885 17.4722 29.173 16.9878C29.6574 16.5033 30.3145 16.2311 30.9997 16.2311C31.6848 16.2311 32.3419 16.5033 32.8264 16.9878C33.3108 17.4722 33.583 18.1293 33.583 18.8145V31.7311C33.583 32.4163 33.3108 33.0733 32.8264 33.5578C32.3419 34.0423 31.6848 34.3145 30.9997 34.3145C30.3145 34.3145 29.6574 34.0423 29.173 33.5578C28.6885 33.0733 28.4163 32.4163 28.4163 31.7311V18.8145ZM30.9997 2.58337C15.3059 2.58337 2.58301 15.3063 2.58301 31C2.58301 46.6964 15.3059 59.4167 30.9997 59.4167C46.6934 59.4167 59.4163 46.6964 59.4163 31C59.4163 15.3063 46.6934 2.58337 30.9997 2.58337Z" fill="#0000FF"/>
</svg>
