<svg width="30" height="30" viewBox="0 0 30 30" fill="none" xmlns="http://www.w3.org/2000/svg">
<path d="M3.75 26.25V8.90625H8.90625V3.75H21.0938V14.0625H26.25V26.25H16.6562V21.0938H13.3438V26.25H3.75ZM5.625 24.375H8.90625V21.0938H5.625V24.375ZM5.625 19.2188H8.90625V15.9375H5.625V19.2188ZM5.625 14.0625H8.90625V10.7812H5.625V14.0625ZM10.7812 19.2188H14.0625V15.9375H10.7812V19.2188ZM10.7812 14.0625H14.0625V10.7812H10.7812V14.0625ZM10.7812 8.90625H14.0625V5.625H10.7812V8.90625ZM15.9375 19.2188H19.2188V15.9375H15.9375V19.2188ZM15.9375 14.0625H19.2188V10.7812H15.9375V14.0625ZM15.9375 8.90625H19.2188V5.625H15.9375V8.90625ZM21.0938 24.375H24.375V21.0938H21.0938V24.375ZM21.0938 19.2188H24.375V15.9375H21.0938V19.2188Z" fill="#636363"/>
</svg>
