<svg width="30" height="30" viewBox="0 0 30 30" fill="none" xmlns="http://www.w3.org/2000/svg">
<path d="M2.5 22.1563V20.2813C3.29167 20.2813 3.93229 20.0417 4.42187 19.5625C4.91146 19.0833 5.625 18.8438 6.5625 18.8438C7.5 18.8438 8.22917 19.125 8.75 19.6875C9.27083 20.25 9.9375 20.5312 10.75 20.5312C11.5625 20.5312 12.2396 20.25 12.7812 19.6875C13.3229 19.125 14.0625 18.8438 15 18.8438C15.9375 18.8438 16.6719 19.125 17.2031 19.6875C17.7344 20.25 18.4062 20.5312 19.2188 20.5312C20.0312 20.5312 20.7031 20.25 21.2344 19.6875C21.7656 19.125 22.5 18.8438 23.4375 18.8438C24.375 18.8438 25.0885 19.0833 25.5781 19.5625C26.0677 20.0417 26.7083 20.2813 27.5 20.2813V22.1563C26.5208 22.1563 25.7969 21.9167 25.3281 21.4375C24.8594 20.9583 24.2292 20.7188 23.4375 20.7188C22.6458 20.7188 21.9792 21 21.4375 21.5625C20.8958 22.125 20.1562 22.4062 19.2188 22.4062C18.2812 22.4062 17.5417 22.125 17 21.5625C16.4583 21 15.7917 20.7188 15 20.7188C14.2083 20.7188 13.5365 21 12.9844 21.5625C12.4323 22.125 11.6875 22.4062 10.75 22.4062C9.8125 22.4062 9.07812 22.125 8.54688 21.5625C8.01562 21 7.35417 20.7188 6.5625 20.7188C5.77083 20.7188 5.14062 20.9583 4.67188 21.4375C4.20312 21.9167 3.47917 22.1563 2.5 22.1563ZM2.5 17.1563V15.2813C3.29167 15.2813 3.93229 15.0417 4.42187 14.5625C4.91146 14.0833 5.625 13.8438 6.5625 13.8438C7.5 13.8438 8.22917 14.125 8.75 14.6875C9.27083 15.25 9.9375 15.5313 10.75 15.5313C11.5625 15.5313 12.2396 15.25 12.7812 14.6875C13.3229 14.125 14.0625 13.8438 15 13.8438C15.9375 13.8438 16.6719 14.125 17.2031 14.6875C17.7344 15.25 18.4062 15.5313 19.2188 15.5313C20.0312 15.5313 20.7031 15.25 21.2344 14.6875C21.7656 14.125 22.5 13.8438 23.4375 13.8438C24.375 13.8438 25.0885 14.0833 25.5781 14.5625C26.0677 15.0417 26.7083 15.2813 27.5 15.2813V17.1563C26.5208 17.1563 25.7969 16.9167 25.3281 16.4375C24.8594 15.9583 24.2292 15.7188 23.4375 15.7188C22.6458 15.7188 21.9792 16 21.4375 16.5625C20.8958 17.125 20.1562 17.4062 19.2188 17.4062C18.2812 17.4062 17.5417 17.125 17 16.5625C16.4583 16 15.7917 15.7188 15 15.7188C14.2083 15.7188 13.5365 16 12.9844 16.5625C12.4323 17.125 11.6875 17.4062 10.75 17.4062C9.8125 17.4062 9.07812 17.125 8.54688 16.5625C8.01562 16 7.35417 15.7188 6.5625 15.7188C5.77083 15.7188 5.14062 15.9583 4.67188 16.4375C4.20312 16.9167 3.47917 17.1563 2.5 17.1563ZM2.5 12.1563V10.2813C3.29167 10.2813 3.93229 10.0417 4.42187 9.5625C4.91146 9.08333 5.625 8.84375 6.5625 8.84375C7.5 8.84375 8.22917 9.125 8.75 9.6875C9.27083 10.25 9.9375 10.5313 10.75 10.5313C11.5625 10.5313 12.2396 10.25 12.7812 9.6875C13.3229 9.125 14.0625 8.84375 15 8.84375C15.9375 8.84375 16.6719 9.125 17.2031 9.6875C17.7344 10.25 18.4062 10.5313 19.2188 10.5313C20.0312 10.5313 20.7031 10.25 21.2344 9.6875C21.7656 9.125 22.5 8.84375 23.4375 8.84375C24.375 8.84375 25.0885 9.08333 25.5781 9.5625C26.0677 10.0417 26.7083 10.2813 27.5 10.2813V12.1563C26.5208 12.1563 25.7969 11.9167 25.3281 11.4375C24.8594 10.9583 24.2292 10.7188 23.4375 10.7188C22.6458 10.7188 21.9792 11 21.4375 11.5625C20.8958 12.125 20.1562 12.4063 19.2188 12.4063C18.2812 12.4063 17.5417 12.125 17 11.5625C16.4583 11 15.7917 10.7188 15 10.7188C14.2083 10.7188 13.5365 11 12.9844 11.5625C12.4323 12.125 11.6875 12.4063 10.75 12.4063C9.8125 12.4063 9.07812 12.125 8.54688 11.5625C8.01562 11 7.35417 10.7188 6.5625 10.7188C5.77083 10.7188 5.14062 10.9583 4.67188 11.4375C4.20312 11.9167 3.47917 12.1563 2.5 12.1563Z" fill="#636363"/>
</svg>
