<svg width="30" height="30" viewBox="0 0 30 30" fill="none" xmlns="http://www.w3.org/2000/svg">
<path d="M8.125 26.25C7.60417 26.25 7.16146 26.0677 6.79688 25.7031C6.43229 25.3385 6.25 24.8958 6.25 24.375V9.6875C6.25 9.08333 6.46354 8.56771 6.89062 8.14062C7.31771 7.71354 7.83333 7.5 8.4375 7.5H11.25V3.4375C11.25 3.16667 11.3385 2.94271 11.5156 2.76563C11.6927 2.58854 11.9167 2.5 12.1875 2.5H17.8125C18.0833 2.5 18.3073 2.58854 18.4844 2.76563C18.6615 2.94271 18.75 3.16667 18.75 3.4375V7.5H21.875C22.3958 7.5 22.8385 7.68229 23.2031 8.04688C23.5677 8.41146 23.75 8.85417 23.75 9.375V24.375C23.75 24.8958 23.5677 25.3385 23.2031 25.7031C22.8385 26.0677 22.3958 26.25 21.875 26.25C21.875 26.6042 21.7552 26.901 21.5156 27.1406C21.276 27.3802 20.9792 27.5 20.625 27.5C20.2708 27.5 19.974 27.3802 19.7344 27.1406C19.4948 26.901 19.375 26.6042 19.375 26.25H10.625C10.625 26.6042 10.5052 26.901 10.2656 27.1406C10.026 27.3802 9.72917 27.5 9.375 27.5C9.02083 27.5 8.72396 27.3802 8.48438 27.1406C8.24479 26.901 8.125 26.6042 8.125 26.25ZM12.5 7.5H17.5V3.75H12.5V7.5ZM8.125 24.375H21.875V9.375H8.125V24.375ZM10.3125 22.5H11.5625V11.25H10.3125V22.5ZM14.375 22.5H15.625V11.25H14.375V22.5ZM18.4375 22.5H19.6875V11.25H18.4375V22.5ZM8.125 24.375V9.375V24.375Z" fill="#636363"/>
</svg>
