<svg width="140" height="26" viewBox="0 0 140 26" fill="none" xmlns="http://www.w3.org/2000/svg">
<path d="M10.734 25.4759H7.63822L0 9.88851H5.76885L9.39229 18.1976L13.2813 9.67188H15.9019L19.8188 18.1976L23.8266 9.88152H29.1797L21.5415 25.4689H18.4422L14.5986 16.5903L10.734 25.4759Z" fill="white"/>
<path d="M44.4944 23.4841C43.1701 24.8818 40.9199 25.9999 38.0407 25.9999C35.1615 25.9999 32.9113 24.8818 31.587 23.4841C30.1534 21.8916 29.3626 19.8231 29.3682 17.6803C29.3628 15.5386 30.1536 13.4714 31.587 11.88C32.9113 10.4824 35.1615 9.36426 38.0407 9.36426C40.9199 9.36426 43.1701 10.4824 44.4944 11.88C45.9278 13.4714 46.7186 15.5386 46.7132 17.6803C46.7188 19.8231 45.928 21.8916 44.4944 23.4841ZM35.1196 14.5636C34.7193 14.975 34.4067 15.4633 34.2007 15.9991C33.9947 16.5348 33.8996 17.1068 33.9211 17.6803C33.8991 18.2545 33.994 18.8271 34.2 19.3635C34.4061 19.8999 34.7189 20.3888 35.1196 20.8006C35.5045 21.1947 35.9675 21.504 36.479 21.7086C36.9905 21.9132 37.5391 22.0086 38.0896 21.9886C38.6282 22.0007 39.1635 21.9013 39.6619 21.6969C40.1603 21.4925 40.6112 21.1874 40.9863 20.8006C41.3856 20.388 41.6974 19.8989 41.9028 19.3627C42.1082 18.8264 42.2029 18.2542 42.1813 17.6803C42.2026 17.1071 42.1077 16.5354 41.9024 15.9998C41.697 15.4642 41.3854 14.9756 40.9863 14.5636C40.6058 14.1734 40.1485 13.8663 39.6433 13.6619C39.1381 13.4574 38.596 13.3599 38.0512 13.3755C37.5069 13.3595 36.9652 13.4568 36.4605 13.6614C35.9558 13.8659 35.4992 14.1731 35.1196 14.5636Z" fill="white"/>
<path d="M49.3408 9.88857H54.3724V12.3345C54.8222 11.4514 55.4987 10.7037 56.3326 10.1681C57.1452 9.68831 58.0807 9.45748 59.0231 9.50421C59.5803 9.49462 60.1352 9.57727 60.6654 9.7488L60.3858 14.4659C59.6872 14.0931 58.9065 13.9009 58.1146 13.9068C57.6447 13.8913 57.1769 13.9769 56.7429 14.1577C56.3089 14.3385 55.9187 14.6105 55.5989 14.9551C54.4772 16.1431 54.3724 17.8203 54.3724 19.1481V25.476H49.3408V9.88857Z" fill="white"/>
<path d="M67.93 0V15.6189L73.5906 9.88846H80.1945L72.7834 16.9467L80.7186 25.4759H73.94L67.93 18.7636V25.4759H62.8984V0H67.93Z" fill="white"/>
<path d="M102.627 9.88839H107.309V25.4758H102.627V23.589C101.264 25.6855 98.9583 25.9999 97.6655 25.9999C95.4292 25.9999 93.5424 25.4409 91.8302 23.6239C90.3352 22.0518 89.5193 19.9543 89.559 17.7852C89.505 15.4533 90.3711 13.1939 91.97 11.4957C92.6856 10.798 93.5332 10.2502 94.4632 9.88418C95.3931 9.51819 96.3868 9.34143 97.3859 9.36427C98.7137 9.36427 101.195 9.67874 102.627 11.6355V9.88839ZM95.7367 14.8151C95.3635 15.1847 95.0689 15.626 94.8708 16.1124C94.6726 16.5988 94.5749 17.1203 94.5836 17.6454C94.5615 18.6772 94.9368 19.678 95.6319 20.4407C96.0352 20.8536 96.5217 21.176 97.059 21.3869C97.5963 21.5977 98.1722 21.692 98.7487 21.6637C99.7316 21.6625 100.674 21.2717 101.369 20.577C101.765 20.1991 102.078 19.7431 102.289 19.2379C102.499 18.7326 102.603 18.1892 102.592 17.6419C102.602 17.1114 102.505 16.5843 102.307 16.092C102.109 15.5997 101.814 15.1524 101.439 14.7767C100.672 14.0849 99.6769 13.6994 98.6438 13.6935C98.1073 13.662 97.5702 13.7458 97.0687 13.9393C96.5673 14.1328 96.1131 14.4314 95.7367 14.8151Z" fill="white"/>
<path d="M116.394 13.9417V25.4724H111.362V13.9417H109.615V9.88851H111.362V4.85693H116.394V9.88851H119.504V13.9417H116.394Z" fill="white"/>
<path d="M139.071 20.7866H121.464V25.4723H139.071V20.7866Z" fill="white"/>
</svg>
