<svg width="163" height="34" viewBox="0 0 163 34" fill="none" xmlns="http://www.w3.org/2000/svg">
<path d="M9.43131 27.7572H6.71121L0 13.6169H5.06871L8.2524 21.1546L11.6694 13.4204H13.972L17.4135 21.1546L20.9349 13.6106H25.6383L18.9271 27.7509H16.2039L12.8268 19.6965L9.43131 27.7572Z" fill="white"/>
<path d="M39.0941 25.9501C37.9306 27.218 35.9534 28.2323 33.4237 28.2323C30.8939 28.2323 28.9168 27.218 27.7532 25.9501C26.4936 24.5054 25.7988 22.629 25.8037 20.6851C25.799 18.7423 26.4938 16.8669 27.7532 15.4233C28.9168 14.1554 30.8939 13.1411 33.4237 13.1411C35.9534 13.1411 37.9306 14.1554 39.0941 15.4233C40.3536 16.8669 41.0484 18.7423 41.0436 20.6851C41.0486 22.629 40.3538 24.5054 39.0941 25.9501V25.9501ZM30.8571 17.8577C30.5054 18.2309 30.2308 18.6739 30.0498 19.1599C29.8688 19.6459 29.7852 20.1648 29.8041 20.6851C29.7848 21.206 29.8681 21.7254 30.0492 22.212C30.2302 22.6986 30.505 23.1421 30.8571 23.5157C31.1953 23.8732 31.6022 24.1538 32.0516 24.3394C32.501 24.525 32.983 24.6115 33.4667 24.5934C33.9399 24.6043 34.4102 24.5142 34.8482 24.3288C35.2861 24.1433 35.6822 23.8665 36.0118 23.5157C36.3627 23.1414 36.6366 22.6977 36.8171 22.2112C36.9975 21.7248 37.0807 21.2057 37.0618 20.6851C37.0805 20.1651 36.9971 19.6465 36.8167 19.1606C36.6363 18.6747 36.3625 18.2315 36.0118 17.8577C35.6774 17.5037 35.2757 17.2252 34.8318 17.0397C34.3879 16.8542 33.9116 16.7658 33.4329 16.78C32.9547 16.7654 32.4787 16.8537 32.0353 17.0393C31.5918 17.2248 31.1906 17.5035 30.8571 17.8577Z" fill="white"/>
<path d="M43.3525 13.6167H47.7735V15.8356C48.1687 15.0344 48.7631 14.3562 49.4958 13.8703C50.2097 13.4351 51.0317 13.2257 51.8598 13.2681C52.3493 13.2594 52.8368 13.3343 53.3027 13.49L53.0571 17.7691C52.4433 17.4309 51.7573 17.2566 51.0615 17.262C50.6486 17.2479 50.2376 17.3255 49.8563 17.4895C49.4749 17.6536 49.1321 17.9003 48.8511 18.2129C47.8656 19.2906 47.7735 20.8121 47.7735 22.0166V27.757H43.3525V13.6167Z" fill="white"/>
<path d="M59.6856 4.64648V18.8153L64.6591 13.6169H70.4616L63.9499 20.0198L70.9221 27.7571H64.9661L59.6856 21.668V27.7571H55.2646V4.64648H59.6856Z" fill="white"/>
<path d="M90.1708 13.6164H94.2847V27.7567H90.1708V26.045C88.9734 27.9468 86.9472 28.2321 85.8112 28.2321C83.8464 28.2321 82.1885 27.725 80.6842 26.0767C79.3706 24.6506 78.6537 22.7478 78.6886 20.78C78.6411 18.6647 79.4021 16.6151 80.807 15.0745C81.4357 14.4416 82.1805 13.9446 82.9976 13.6126C83.8147 13.2806 84.6877 13.1202 85.5656 13.1409C86.7323 13.1409 88.912 13.4262 90.1708 15.2013V13.6164ZM84.1165 18.0858C83.7886 18.421 83.5298 18.8213 83.3557 19.2625C83.1816 19.7038 83.0958 20.1769 83.1034 20.6532C83.0839 21.5892 83.4137 22.4971 84.0244 23.189C84.3789 23.5635 84.8062 23.8561 85.2783 24.0473C85.7504 24.2386 86.2564 24.3242 86.763 24.2985C87.6266 24.2974 88.4546 23.9429 89.0655 23.3127C89.4135 22.9699 89.6886 22.5562 89.8736 22.0979C90.0586 21.6395 90.1493 21.1465 90.14 20.6501C90.1488 20.1688 90.0637 19.6906 89.8896 19.2441C89.7155 18.7975 89.4561 18.3917 89.1269 18.0509C88.4527 17.4233 87.5786 17.0736 86.6708 17.0683C86.1994 17.0397 85.7275 17.1157 85.2869 17.2912C84.8463 17.4667 84.4472 17.7377 84.1165 18.0858V18.0858Z" fill="white"/>
<path d="M102.268 17.2931V27.7533H97.8475V17.2931H96.3125V13.6162H97.8475V9.05176H102.268V13.6162H105.001V17.2931H102.268Z" fill="white"/>
<path d="M137.336 6.82812H134.5V28.1562H137.336V6.82812ZM118.445 21.9219L120.25 24.125C122.207 22.9297 123.496 20.8203 124.223 18.3359C124.949 20.6328 126.191 22.5312 128.102 23.6562L129.859 21.4531C126.742 19.6719 125.629 16.0859 125.641 12.5469V11.3984H128.875V9.00781H119.266V11.3984H122.758V12.5469C122.758 16.168 121.586 19.9883 118.445 21.9219ZM127.352 16.5547H130.164V27.1719H132.977V7.17969H130.164V14.1406H127.352V16.5547ZM159.086 18.5938H139.633V20.9844H147.836V28.1562H150.789V20.9844H159.086V18.5938ZM140.594 15.0078L141.695 17.3516C145.41 16.8477 148.07 15.2539 149.371 13.0625C150.66 15.2539 153.344 16.8477 157.094 17.3516L158.172 15.0078C153.789 14.4805 151.434 12.3945 151.129 10.2969H157.352V7.95312H141.391V10.2969H147.613C147.297 12.3945 144.906 14.4805 140.594 15.0078Z" fill="white"/>
<line x1="115" y1="30.9" x2="163" y2="30.9" stroke="white" stroke-width="2.2"/>
</svg>
