<svg width="31" height="31" viewBox="0 0 31 31" fill="none" xmlns="http://www.w3.org/2000/svg">
<path fill-rule="evenodd" clip-rule="evenodd" d="M30.6454 0.218601C30.7564 0.309542 30.8457 0.42398 30.907 0.553653C30.9683 0.683326 31.0001 0.824997 31 0.968436V28.0942C30.9999 28.3181 30.9222 28.535 30.7802 28.7081C30.6382 28.8812 30.4407 28.9998 30.2211 29.0437L20.5336 30.9812C20.4083 31.0062 20.2792 31.0062 20.1539 30.9812L10.6562 29.0824L1.15863 30.9812C1.01813 31.0093 0.873164 31.0059 0.734159 30.9712C0.595153 30.9365 0.465573 30.8714 0.354755 30.7806C0.243937 30.6898 0.154638 30.5755 0.0932941 30.446C0.0319497 30.3166 8.65147e-05 30.1751 0 30.0318L0 2.90599C0.000135203 2.68212 0.0778025 2.4652 0.219797 2.29211C0.361791 2.11903 0.559346 2.00047 0.778875 1.95659L10.4664 0.0190328C10.5917 -0.00602121 10.7208 -0.00602121 10.8461 0.0190328L20.3438 1.91784L29.8414 0.0190328C29.9818 -0.00922486 30.1268 -0.00598233 30.2658 0.0285269C30.4049 0.0630361 30.5345 0.127953 30.6454 0.218601ZM19.375 3.70039L11.625 2.15035V27.2999L19.375 28.8499V3.70039ZM21.3125 28.8499L29.0625 27.2999V2.15035L21.3125 3.70039V28.8499ZM9.6875 27.2999V2.15035L1.9375 3.70039V28.8499L9.6875 27.2999Z" fill="#606161"/>
</svg>
