<svg width="30" height="30" viewBox="0 0 30 30" fill="none" xmlns="http://www.w3.org/2000/svg">
<path d="M15.283 14.7169C17.2196 14.7169 19.0769 13.9476 20.4462 12.5783C21.8156 11.2089 22.5849 9.35163 22.5849 7.41505C22.5849 5.47847 21.8156 3.6212 20.4462 2.25183C19.0769 0.882463 17.2196 0.113159 15.283 0.113159C13.3465 0.113159 11.4892 0.882463 10.1198 2.25183C8.75045 3.6212 7.98115 5.47847 7.98115 7.41505C7.98115 9.35163 8.75045 11.2089 10.1198 12.5783C11.4892 13.9476 13.3465 14.7169 15.283 14.7169ZM20.151 7.41505C20.151 8.7061 19.6381 9.94427 18.7252 10.8572C17.8123 11.7701 16.5741 12.283 15.283 12.283C13.992 12.283 12.7538 11.7701 11.8409 10.8572C10.928 9.94427 10.4151 8.7061 10.4151 7.41505C10.4151 6.12399 10.928 4.88582 11.8409 3.9729C12.7538 3.05999 13.992 2.54712 15.283 2.54712C16.5741 2.54712 17.8123 3.05999 18.7252 3.9729C19.6381 4.88582 20.151 6.12399 20.151 7.41505ZM29.8868 26.8867C29.8868 29.3207 27.4528 29.3207 27.4528 29.3207H3.11322C3.11322 29.3207 0.67926 29.3207 0.67926 26.8867C0.67926 24.4528 3.11322 17.1509 15.283 17.1509C27.4528 17.1509 29.8868 24.4528 29.8868 26.8867ZM27.4528 26.877C27.4504 26.2783 27.078 24.4771 25.4278 22.8269C23.8408 21.24 20.8544 19.5849 15.283 19.5849C9.70926 19.5849 6.72522 21.24 5.13828 22.8269C3.48805 24.4771 3.11809 26.2783 3.11322 26.877H27.4528Z" fill="#606161"/>
</svg>
