<svg width="24" height="24" viewBox="0 0 24 24" fill="none" xmlns="http://www.w3.org/2000/svg">
<path fill-rule="evenodd" clip-rule="evenodd" d="M22.3599 20.84L18.9229 16.03C18.639 15.6358 18.2274 15.352 17.7579 15.227L17.7039 15.292C16.8089 16.352 15.6709 17.542 14.1209 19.04C13.5524 19.5899 12.7919 19.8966 12.0009 19.895C11.2103 19.8971 10.4501 19.5907 9.88194 19.041C8.29994 17.511 7.14394 16.298 6.24194 15.224C5.76831 15.3469 5.35263 15.6317 5.06694 16.0289L1.62994 20.84C1.51786 20.997 1.45121 21.1818 1.4373 21.3743C1.4234 21.5667 1.46277 21.7592 1.55111 21.9307C1.63945 22.1022 1.77333 22.2461 1.93807 22.3465C2.1028 22.4469 2.29201 22.5 2.48494 22.5H21.5049C22.3589 22.5 22.8549 21.535 22.3589 20.84" fill="#8B95A1"/>
<path fill-rule="evenodd" clip-rule="evenodd" d="M11.9999 6.30195C12.2663 6.29586 12.5311 6.34305 12.779 6.44073C13.0268 6.53841 13.2527 6.68463 13.4432 6.8708C13.6338 7.05696 13.7853 7.27932 13.8887 7.52482C13.9922 7.77033 14.0455 8.03402 14.0456 8.30043C14.0458 8.56683 13.9927 8.83058 13.8895 9.07619C13.7863 9.32179 13.6351 9.54431 13.4447 9.73066C13.2543 9.91702 13.0286 10.0635 12.7809 10.1614C12.5331 10.2593 12.2683 10.3068 12.0019 10.301C11.4715 10.3011 10.9627 10.0905 10.5876 9.71552C10.2124 9.34054 10.0016 8.83188 10.0014 8.30145C10.0013 7.77102 10.2119 7.26226 10.5869 6.88709C10.9618 6.51192 11.4705 6.30108 12.0009 6.30095M11.2729 17.603C11.4693 17.7907 11.7305 17.8954 12.0021 17.8952C12.2738 17.895 12.5349 17.79 12.7309 17.6019C17.3489 13.1399 18.8029 10.902 18.8029 8.30195C18.8029 3.89795 14.6159 0.470951 10.0059 1.78395C7.09594 2.61395 5.19994 5.27595 5.19994 8.30195C5.19994 10.904 6.65494 13.1409 11.2729 17.6019" fill="#8B95A1"/>
</svg>
