<svg width="25" height="24" viewBox="0 0 25 24" fill="none" xmlns="http://www.w3.org/2000/svg">
<path fill-rule="evenodd" clip-rule="evenodd" d="M5 3C3.89543 3 3 3.89543 3 5V17C3 18.1046 3.89543 19 5 19H10.1906L12.5 23L14.8094 19H20C21.1046 19 22 18.1046 22 17V5C22 3.89543 21.1046 3 20 3H5ZM6.5 8.5C5.94772 8.5 5.5 8.94772 5.5 9.5C5.5 10.0523 5.94772 10.5 6.5 10.5H18.5C19.0523 10.5 19.5 10.0523 19.5 9.5C19.5 8.94772 19.0523 8.5 18.5 8.5H6.5ZM6.5 13.5C6.5 12.9477 6.94772 12.5 7.5 12.5H17.5C18.0523 12.5 18.5 12.9477 18.5 13.5C18.5 14.0523 18.0523 14.5 17.5 14.5H7.5C6.94772 14.5 6.5 14.0523 6.5 13.5Z" fill="#8B95A1"/>
</svg>
