<svg width="18" height="18" viewBox="0 0 18 18" fill="none" xmlns="http://www.w3.org/2000/svg">
<g clip-path="url(#clip0_2629_9486)">
<rect width="18" height="18" fill="white"/>
<path fill-rule="evenodd" clip-rule="evenodd" d="M13.5 9.93525H11.9918L11.4517 11.8995C11.4046 12.0752 11.3006 12.2302 11.1559 12.3404C11.0112 12.4506 10.8341 12.5097 10.6523 12.5085H10.6515C10.2735 12.5085 9.9525 12.2633 9.85275 11.8995L9 8.8035L8.148 11.8995C8.10088 12.0752 7.99684 12.2302 7.85216 12.3404C7.70749 12.4506 7.53036 12.5097 7.3485 12.5085C6.9705 12.5085 6.6495 12.264 6.549 11.9002L6.00825 9.93525H4.5C4.32098 9.93525 4.14929 9.86413 4.0227 9.73755C3.89612 9.61096 3.825 9.43927 3.825 9.26025C3.825 9.08123 3.89612 8.90954 4.0227 8.78295C4.14929 8.65637 4.32098 8.58525 4.5 8.58525H5.637L5.16375 6.86625C5.13758 6.78 5.12894 6.68937 5.13836 6.59973C5.14777 6.51008 5.17505 6.42323 5.21857 6.3443C5.2621 6.26537 5.32099 6.19595 5.39178 6.14015C5.46257 6.08434 5.54381 6.04328 5.63073 6.01939C5.71764 5.99549 5.80846 5.98925 5.89782 6.00102C5.98719 6.01279 6.07329 6.04235 6.15105 6.08793C6.22881 6.13352 6.29665 6.19422 6.35057 6.26646C6.40449 6.33869 6.4434 6.42099 6.465 6.5085L7.3485 9.717L8.2005 6.62175C8.24736 6.44589 8.35132 6.29059 8.49603 6.18022C8.64074 6.06985 8.81801 6.01068 9 6.012C9.378 6.012 9.69975 6.25725 9.7995 6.62175L10.6523 9.717L11.535 6.5085C11.5585 6.42301 11.5986 6.34298 11.653 6.27299C11.7074 6.203 11.7751 6.14441 11.8522 6.10056C11.9292 6.05672 12.0142 6.02849 12.1021 6.01748C12.1901 6.00646 12.2794 6.01288 12.3649 6.03638C12.4504 6.05987 12.5304 6.09996 12.6004 6.15438C12.6704 6.2088 12.729 6.27647 12.7728 6.35353C12.8167 6.43059 12.8449 6.51553 12.8559 6.60351C12.8669 6.69148 12.8605 6.78076 12.837 6.86625L12.363 8.58525H13.5C13.679 8.58525 13.8507 8.65637 13.9773 8.78295C14.1039 8.90954 14.175 9.08123 14.175 9.26025C14.175 9.43927 14.1039 9.61096 13.9773 9.73755C13.8507 9.86413 13.679 9.93525 13.5 9.93525ZM9 0.75C4.44375 0.75 0.75 4.44375 0.75 9C0.75 13.557 4.44375 17.25 9 17.25C13.5562 17.25 17.25 13.557 17.25 9C17.25 4.44375 13.5562 0.75 9 0.75Z" fill="#8B95A1"/>
</g>
<defs>
<clipPath id="clip0_2629_9486">
<rect width="18" height="18" fill="white"/>
</clipPath>
</defs>
</svg>
