<svg width="30" height="30" viewBox="0 0 30 30" fill="none" xmlns="http://www.w3.org/2000/svg">
<path d="M3.75 26.25V24.375H6.625V3.75H18.8125V5.15625H23.4062V24.375H26.25V26.25H21.5312V7.03125H18.8125V26.25H3.75ZM8.5 5.625V24.375V5.625ZM15.3438 15C15.3438 14.6458 15.224 14.349 14.9844 14.1094C14.7448 13.8698 14.4479 13.75 14.0938 13.75C13.7396 13.75 13.4427 13.8698 13.2031 14.1094C12.9635 14.349 12.8438 14.6458 12.8438 15C12.8438 15.3542 12.9635 15.651 13.2031 15.8906C13.4427 16.1302 13.7396 16.25 14.0938 16.25C14.4479 16.25 14.7448 16.1302 14.9844 15.8906C15.224 15.651 15.3438 15.3542 15.3438 15ZM8.5 24.375H16.9375V5.625H8.5V24.375Z" fill="#636363"/>
</svg>
