<svg width="18" height="19" viewBox="0 0 18 19" fill="none" xmlns="http://www.w3.org/2000/svg">
<path fill-rule="evenodd" clip-rule="evenodd" d="M16.7551 13.5308L13.7709 11.2208C13.6268 11.1096 13.447 11.0547 13.2654 11.0664C13.0837 11.0782 12.9125 11.1557 12.7839 11.2845L11.1999 12.8693C11.0819 12.9885 10.9272 13.0643 10.7607 13.0846C10.5942 13.1049 10.4258 13.0684 10.2826 12.981C9.77264 12.6683 8.91915 12.0623 7.85115 10.9935C6.78315 9.92629 6.17715 9.07204 5.8644 8.56279C5.77693 8.41976 5.74043 8.25134 5.76086 8.08493C5.78129 7.91852 5.85743 7.76392 5.9769 7.6463L7.5609 6.06155C7.68992 5.933 7.76753 5.76173 7.77913 5.57997C7.79073 5.39821 7.73553 5.21847 7.6239 5.07455L5.31465 2.08956C4.78966 1.41231 3.79966 1.30506 3.15466 1.87131C2.30491 2.61681 1.28416 3.73356 0.987165 4.9868C0.449416 7.2443 1.29916 10.077 5.03415 13.812C8.76915 17.5463 11.6019 18.3968 13.8586 17.8598C15.1119 17.5613 16.2294 16.5398 16.9749 15.6908C17.5404 15.0458 17.4331 14.0558 16.7551 13.5308Z" fill="#8B95A1"/>
</svg>
