<svg width="31" height="32" viewBox="0 0 31 32" fill="none" xmlns="http://www.w3.org/2000/svg">
    <path d="M30.2849 13.0165L16.5433 0.609713C16.0966 0.206378 15.5083 -0.0119012 14.9014 0.000500976C14.2946 0.0129032 13.716 0.255026 13.2868 0.676262L0.648578 13.0792L0 13.7156V32H12.1786V20.5915H18.8214V32H31V13.6621L30.2849 13.0165ZM14.9491 2.17308C14.9686 2.17308 14.9565 2.17722 14.9482 2.1853C14.9395 2.17722 14.9295 2.17308 14.9491 2.17308ZM28.7857 29.827H21.0357V20.5915C21.0357 20.0152 20.8024 19.4625 20.3872 19.055C19.9719 18.6475 19.4087 18.4185 18.8214 18.4185H12.1786C11.5913 18.4185 11.0281 18.6475 10.6128 19.055C10.1976 19.4625 9.96428 20.0152 9.96428 20.5915V29.827H2.21429V14.6157L14.9491 2.2128C14.95 2.21199 14.95 2.21124 14.9507 2.21043L28.7857 14.6157V29.827Z" fill="#606161" />
</svg>
    