<svg width="30" height="30" viewBox="0 0 30 30" fill="none" xmlns="http://www.w3.org/2000/svg">
    <path d="M28.8158 30C28.5242 29.9993 28.2431 29.8899 28.0263 29.6927L21.9671 24.1644H3.98683C2.92909 24.1634 1.91505 23.7378 1.16749 22.9811C0.419925 22.2244 -5.17424e-07 21.1986 0 20.1291V4.03139C0.00104504 2.96252 0.421436 1.93773 1.16889 1.18193C1.91634 0.426122 2.92978 0.00105672 3.98683 0H26.0132C27.0702 0.00105672 28.0837 0.426122 28.8311 1.18193C29.5786 1.93773 29.999 2.96252 30 4.03139V28.8025C30.0007 29.0347 29.9347 29.262 29.8099 29.4569C29.6852 29.6518 29.5071 29.8058 29.2974 29.9002C29.1453 29.9665 28.9814 30.0005 28.8158 30ZM3.98683 2.39489C3.55792 2.39594 3.14687 2.56871 2.84358 2.87538C2.54029 3.18206 2.36946 3.59768 2.36842 4.03139V20.1291C2.36842 20.5634 2.53878 20.9801 2.84218 21.2877C3.14558 21.5952 3.55724 21.7685 3.98683 21.7695H22.4171C22.7087 21.7702 22.9898 21.8797 23.2066 22.0769L27.6276 26.1123V4.03139C27.6266 3.59768 27.4558 3.18206 27.1525 2.87538C26.8492 2.56871 26.4381 2.39594 26.0092 2.39489H3.98683Z" fill="#606161" />
    <path d="M22.7132 10.1504H7.36982C7.05575 10.1504 6.75453 10.0242 6.53245 9.79967C6.31037 9.5751 6.18561 9.27052 6.18561 8.95294C6.18561 8.63536 6.31037 8.33077 6.53245 8.10621C6.75453 7.88165 7.05575 7.75549 7.36982 7.75549H22.7132C23.0273 7.75549 23.3285 7.88165 23.5506 8.10621C23.7727 8.33077 23.8974 8.63536 23.8974 8.95294C23.8974 9.27052 23.7727 9.5751 23.5506 9.79967C23.3285 10.0242 23.0273 10.1504 22.7132 10.1504Z" fill="#606161" />
    <path d="M21.5132 16.3252H10.5277C10.2136 16.3252 9.91243 16.199 9.69035 15.9744C9.46826 15.7499 9.34351 15.4453 9.34351 15.1277C9.34351 14.8102 9.46826 14.5056 9.69035 14.281C9.91243 14.0564 10.2136 13.9303 10.5277 13.9303H21.5132C21.8273 13.9303 22.1285 14.0564 22.3506 14.281C22.5727 14.5056 22.6974 14.8102 22.6974 15.1277C22.6974 15.4453 22.5727 15.7499 22.3506 15.9744C22.1285 16.199 21.8273 16.3252 21.5132 16.3252Z" fill="#606161" />
</svg>
    