<svg width="22" height="20" viewBox="0 0 22 20" fill="none" xmlns="http://www.w3.org/2000/svg">
    <path d="M20.6328 4.64616C20.3187 3.91875 19.8657 3.25957 19.2992 2.70553C18.7323 2.14984 18.064 1.70825 17.3305 1.40475C16.5699 1.0888 15.7541 0.927076 14.9305 0.928972C13.775 0.928972 12.6477 1.24538 11.668 1.84303C11.4336 1.986 11.2109 2.14303 11 2.31413C10.7891 2.14303 10.5664 1.986 10.332 1.84303C9.35234 1.24538 8.225 0.928972 7.06953 0.928972C6.2375 0.928972 5.43125 1.08835 4.66953 1.40475C3.93359 1.70944 3.27031 2.14772 2.70078 2.70553C2.13359 3.25895 1.6805 3.91828 1.36719 4.64616C1.04141 5.40319 0.875 6.2071 0.875 7.03444C0.875 7.81491 1.03438 8.62819 1.35078 9.45553C1.61563 10.1469 1.99531 10.8641 2.48047 11.5883C3.24922 12.7344 4.30625 13.9298 5.61875 15.1415C7.79375 17.1501 9.94766 18.5376 10.0391 18.5938L10.5945 18.9501C10.8406 19.1071 11.157 19.1071 11.4031 18.9501L11.9586 18.5938C12.05 18.5352 14.2016 17.1501 16.3789 15.1415C17.6914 13.9298 18.7484 12.7344 19.5172 11.5883C20.0023 10.8641 20.3844 10.1469 20.6469 9.45553C20.9633 8.62819 21.1227 7.81491 21.1227 7.03444C21.125 6.2071 20.9586 5.40319 20.6328 4.64616ZM11 17.0962C11 17.0962 2.65625 11.7501 2.65625 7.03444C2.65625 4.64616 4.63203 2.71022 7.06953 2.71022C8.78281 2.71022 10.2688 3.66647 11 5.06335C11.7312 3.66647 13.2172 2.71022 14.9305 2.71022C17.368 2.71022 19.3438 4.64616 19.3438 7.03444C19.3438 11.7501 11 17.0962 11 17.0962Z" fill="#CCCCCC" />
</svg>
    